<svg viewBox="0 0 360 80" xmlns="http://www.w3.org/2000/svg">
  <g id="SvgjsG1015"
     featurekey="nameFeature-0"
     transform="matrix(1.731737300730282,0,0,1.731737300730282,-3.5608007625952713,-10)"
     fill="#4a266a">
    <path d="M10.179 22.91 c0 4.3656 7.3792 6.4436 7.3792 11.489 c0 3.8096 -3.5464 5.8592 -8.1064 5.8592 c-4.1296 0 -7.3956 -2.0952 -7.3956 -5.4968 c0 -1.3016 0.7096 -1.9904 1.4396 -2.1484 l5.1332 -9.404 c0.2332 -0.9388 0.6848 -1.8316 1.168 -2.6036 c0.35879 -0.5656 0.8124 -1.0028 1.0208 -1.0028 c0.21801 0 0.33922 0.1848 0.27562 0.35442 c-0.5076 0.924 -0.9144 1.7888 -0.9144 2.9528 z M9.066 39.58836 c4.138 0 5.4948 -2.1268 5.4948 -4.4468 c0 -3.5588 -6.3848 -5.9404 -6.1848 -10.245 l-4.208 7.7476 c0.5744 0.10641 1.0856 0.5736 1.0856 1.3996 c0 1.1932 -1.4564 1.484 -1.4564 2.4936 c0 1.6068 2.3764 3.0508 5.2688 3.0508 z M34.045 21.655 c4.0928 0 7.8176 3.2272 7.8176 9.3112 c0 6.4372 -3.7292 9.3548 -7.8176 9.3548 c-3.2484 0 -5.6524 -2.3504 -6.7616 -5.7048 l0 14.636 c0 0.5144 0.38641 0.96404 0.9644 0.96404 l1.036 0 c0.18641 0 0.31602 0.12961 0.31602 0.30762 c0 0.18641 -0.12961 0.31602 -0.31602 0.31602 l-5.12 0 l0 -27.292 c0 -0.5144 -0.38602 -0.96404 -0.96404 -0.96404 l-1.036 0 c-0.18641 0 -0.31602 -0.12961 -0.31602 -0.30762 c0 -0.18641 0.12961 -0.31602 0.31602 -0.31602 l5.12 0 l0 5.4236 c1.076 -3.2884 3.4552 -5.7284 6.7612 -5.7284 z M33.158 39.4016 c3.1132 0 5.3548 -2.5184 5.3548 -8.4244 c0 -5.8828 -2.2416 -8.4016 -5.3548 -8.4016 c-3.0372 0 -5.8992 3.822 -5.8992 8.4332 c0 4.5764 2.8288 8.3928 5.8992 8.3928 z M63.486 30.5364 c0 0.31039 -0.14809 0.42248 -0.51488 0.42248 l-12.843 0 c0 4.5504 1.8552 8.378 6.2512 8.378 c3.5364 0 5.4576 -2.5888 6.1472 -4.4948 c0.081212 -0.21121 0.19442 -0.26762 0.31562 -0.26762 c0.22641 0 0.3148 0.16961 0.2832 0.36281 c-0.31719 1.2304 -2.2412 5.32 -7.19 5.32 c-4.894 0 -9.1656 -2.8884 -9.1656 -9.3296 c0 -5.8964 3.5808 -9.2728 8.5836 -9.2728 c4.7684 0 8.1324 3.1008 8.1324 8.8816 z M50.136399999999995 30.3684 l10.096 -0.00035156 c-0.033203 -5.4964 -1.9792 -8.084 -4.8812 -8.084 c-2.914 0 -5.0704 2.8156 -5.2144 8.0844 z M84.87800000000001 27.102 c0 1.6704 -0.91644 2.4189 -1.8848 2.4189 c-0.8868 0 -1.618 -0.7268 -1.618 -1.618 c0 -1.3504 1.5144 -1.592 1.5144 -2.6264 c0 -1.582 -2.3268 -2.96 -5.0124 -2.96 c-2.8304 0 -5.8704 2.0288 -5.8704 8.6028 c0 5.4964 2.4388 8.4592 6.1436 8.4592 c3.5088 0 5.3432 -2.6288 6.0892 -4.528 c0.056408 -0.1616 0.16121 -0.24281 0.30762 -0.24281 c0.25078 0 0.34719 0.21922 0.29078 0.4124 c-0.6136 1.8 -2.6288 5.2372 -7.1324 5.2372 c-5.8236 0 -9.058 -3.8812 -9.058 -9.3376 c0 -6.4496 4.5132 -9.2648 8.8512 -9.2648 c4.2952 0 7.3792 2.3684 7.3792 5.4472 z M96.87480000000001 39.3764 c0.18641 0 0.31558 0.12969 0.31558 0.3077 c0 0.18641 -0.12961 0.31602 -0.31602 0.31602 l-7.12 0 c-0.18641 0 -0.31602 -0.12961 -0.31602 -0.31602 c0 -0.17801 0.12961 -0.30762 0.31602 -0.30762 l1.036 0 c0.578 0 0.96404 -0.4496 0.96404 -0.96404 l0 -25.985 c0 -0.5144 -0.38602 -0.96404 -0.96404 -0.96404 l-1.036 0 c-0.18641 0 -0.31602 -0.12961 -0.31602 -0.30762 c0 -0.18641 0.12961 -0.31602 0.31602 -0.31602 l5.12 0 l0 27.572 c0 0.5144 0.38641 0.96404 0.9644 0.96404 l1.036 0 z M108.23300000000002 39.37648 c0.18602 0 0.31527 0.12926 0.31527 0.31566 c0 0.17801 -0.12961 0.30762 -0.31562 0.30762 l-7.4788 0 c-0.18602 0 -0.31562 -0.12961 -0.31562 -0.31602 c0 -0.17801 0.12961 -0.30762 0.31602 -0.30762 l1.0484 0 c0.5328 0 0.7496 -0.4528 0.2816 -1.0108 l-6.6248 -7.8952 l8.764 -6.956 c0.4104 -0.32 0.3532 -0.9312 -0.4732 -0.9312 l-1.4884 0 c-0.18602 0 -0.31562 -0.12961 -0.31562 -0.31562 c0 -0.17801 0.12961 -0.30762 0.31562 -0.30762 l5.8096 0 c0.18641 0 0.31602 0.12961 0.31602 0.31602 c0 0.17801 -0.12961 0.30762 -0.31602 0.30762 l-0.29641 0 c-0.9944 0 -1.604 0.20641 -2.5396 0.9312 l-6.9764 5.53 l7.88 9.412 c0.4816 0.5992 1.0552 0.92 1.8 0.92 l0.29398 0 z M113.01660000000001 15.788 c0 -1.0068 0.8288 -1.8356 1.8676 -1.8356 c0.9904 0 1.8196 0.8288 1.8196 1.8356 c0 0.9904 -0.8292 1.8192 -1.8196 1.8192 c-1.0388 0 -1.8676 -0.8288 -1.8676 -1.8192 z M118.43180000000001 39.3764 c0.18641 0 0.31558 0.12969 0.31558 0.3077 c0 0.18641 -0.12961 0.31602 -0.31602 0.31602 l-7.12 0 c-0.18641 0 -0.31602 -0.12961 -0.31602 -0.31602 c0 -0.17801 0.12961 -0.30762 0.31602 -0.30762 l1.036 0 c0.578 0 0.96404 -0.4496 0.96404 -0.96404 l0 -14.865 c0 -0.5144 -0.38602 -0.96404 -0.96404 -0.96404 l-1.036 0 c-0.18641 0 -0.31602 -0.12961 -0.31602 -0.30762 c0 -0.18641 0.12961 -0.31602 0.31602 -0.31602 l5.12 0 l0 16.452 c0 0.5144 0.38641 0.96404 0.9644 0.96404 l1.036 0 z M134.94500000000002 36.094 c0.18602 0 0.29914 0.13797 0.29914 0.29957 c0 0.098008 -0.0816 0.4028 -0.25961 0.76404 c-0.524 1.1696 -1.8304 3.1008 -4.8992 3.1008 c-3.7352 0 -5.6248 -2.2868 -5.6248 -5.1476 l0 -12.527 l-2 0 c-0.18641 0 -0.31602 -0.12961 -0.31602 -0.31562 c0 -0.17801 0.12961 -0.30762 0.31602 -0.30762 l0.39719 0 c2.1848 0 4.0992 -1.476 4.0992 -5.116 c0 -0.18641 0.12961 -0.31602 0.31562 -0.31602 c0.17801 0 0.30762 0.12961 0.30762 0.31602 l0 5.116 l6.3132 0 c0.18602 0 0.31562 0.12961 0.31562 0.31602 c0 0.17801 -0.12961 0.30762 -0.31562 0.30762 l-6.3132 0 l0 12.527 c0 2.5736 1.2704 4.164 3.236 4.164 c1.8416 0 3.0692 -0.916 3.7508 -2.6624 c0.1284 -0.2952 0.1616 -0.5188 0.37801 -0.5188 z M139.37060000000002 38.5836 c0 -0.9656 0.8124 -1.7696 1.778 -1.7696 c0.9892 0 1.7932 0.804 1.7932 1.7696 c0 0.9888 -0.804 1.8012 -1.7932 1.8012 c-0.9656 0 -1.778 -0.8124 -1.778 -1.8012 z M179.82300000000004 39.3764 c0.18641 0 0.31461 0.12914 0.31461 0.30715 c0 0.18641 -0.12961 0.31602 -0.31602 0.31602 l-7.12 0 c-0.18602 0 -0.31562 -0.12961 -0.31562 -0.31602 c0 -0.17801 0.12961 -0.30762 0.31562 -0.30762 l1.036 0 c0.578 0 0.96404 -0.4496 0.96404 -0.96404 l0 -10.441 c0 -3.974 -1.7588 -5.1424 -3.4388 -5.1424 c-3.5684 0 -5.7616 3.8096 -5.7616 8.2676 l0 7.316 c0 0.5144 0.38641 0.96404 0.9644 0.96404 l1.036 0 c0.18641 0 0.31602 0.12961 0.31602 0.30762 c0 0.18641 -0.12961 0.31602 -0.31602 0.31602 l-7.12 0 c-0.18602 0 -0.31562 -0.12961 -0.31562 -0.31602 c0 -0.17801 0.12961 -0.30762 0.31602 -0.30762 l1.036 0 c0.578 0 0.96404 -0.4496 0.96404 -0.96404 l0 -10.441 c0 -3.974 -1.7584 -5.1424 -3.4384 -5.1424 c-3.5684 0 -5.7616 3.8096 -5.7616 8.2676 l0 7.316 c0 0.5144 0.38641 0.96404 0.9644 0.96404 l1.036 0 c0.18641 0 0.31602 0.12961 0.31602 0.30762 c0 0.18641 -0.12961 0.31602 -0.31602 0.31602 l-7.12 0 c-0.18641 0 -0.31602 -0.12961 -0.31602 -0.31602 c0 -0.17801 0.12961 -0.30762 0.31602 -0.30762 l1.036 0 c0.578 0 0.96404 -0.4496 0.96404 -0.96404 l0 -14.865 c0 -0.5144 -0.38602 -0.96404 -0.96404 -0.96404 l-1.036 0 c-0.18641 0 -0.31602 -0.12961 -0.31602 -0.30762 c0 -0.18641 0.12961 -0.31602 0.31602 -0.31602 l5.12 0 l0 5.3756 c0.9876 -3.2572 3.3444 -5.6172 6.8704 -5.6172 c3.618 0 5.3064 2.0236 5.4188 5.6712 c0.9836 -3.2872 3.3536 -5.6708 6.9012 -5.6708 c3.44 0 5.4496 2.0164 5.4496 5.5228 l0 11.171 c0 0.5144 0.38641 0.96404 0.9644 0.96404 l1.036 0 z M203.84900000000002 39.3764 c0.18641 0 0.31637 0.12961 0.31637 0.30762 c0 0.18641 -0.12961 0.31602 -0.31602 0.31602 l-5.12 0 l0 -5.3836 c-1.1092 3.3544 -3.5132 5.7048 -6.7616 5.7048 c-4.0884 0 -7.8176 -2.9176 -7.8176 -9.3548 c0 -6.084 3.7252 -9.3112 7.818 -9.3112 c3.306 0 5.6852 2.44 6.7612 5.7284 l0 -14.956 c0 -0.5144 -0.38641 -0.96404 -0.9644 -0.96404 l-1.036 0 c-0.18641 0 -0.31602 -0.12961 -0.31602 -0.30762 c0 -0.18641 0.12961 -0.31602 0.31602 -0.31602 l5.12 0 l0 27.572 c0 0.5144 0.38602 0.96404 0.96404 0.96404 l1.036 0 z M192.85500000000002 39.4012 c3.0704 0 5.8992 -3.8168 5.8992 -8.3932 c0 -4.6112 -2.862 -8.4332 -5.8992 -8.4332 c-3.1132 0 -5.3548 2.5188 -5.3548 8.4016 c0 5.906 2.2416 8.4248 5.3548 8.4248 z"></path>
  </g>
</svg>